<svg width="163" height="61" viewBox="0 0 163 61" fill="none" xmlns="http://www.w3.org/2000/svg">
<g clip-path="url(#clip0_1289_6946)">
<path d="M25.3269 28.2714L26.5712 22.3159H5.55574L0 49.0569H6.6428L8.70153 39.0144H21.7931L23.0357 33.0589H10.0227L10.9543 28.2714H25.3269Z" fill="#D3D9DE"/>
<path d="M40.101 28.9333L37.7312 40.298V40.2594C37.3432 42.2451 35.2844 44.0348 33.03 44.0348C31.5533 44.0348 30.6218 43.14 30.6218 41.6218C30.6218 40.9213 30.7773 40.3365 33.1856 28.9333H26.8923C24.367 40.8443 24.0559 41.8564 24.0559 43.3344C24.0559 46.9539 26.5026 49.5227 30.4261 49.5227C32.7173 49.5227 34.8162 48.6665 36.2912 47.1483L35.9032 49.0552H42.4674L46.6635 28.9316H40.0993L40.101 28.9333Z" fill="#D3D9DE"/>
<path d="M56.1176 40.8041C62.3323 40.9984 65.9848 38.4296 65.9848 33.9538C65.9848 30.723 62.7989 28.4658 58.2934 28.4658C57.9121 28.4658 57.5342 28.4843 57.1596 28.5178L57.4171 28.8378C57.862 28.7189 58.3302 28.6552 58.8136 28.6552C61.7905 28.6552 64.2054 31.0749 64.2054 34.0577C64.2054 37.0404 61.7905 39.4601 58.8136 39.4601C56.8334 39.4601 55.1025 38.3894 54.1643 36.7958H52.8548C53.0973 36.4104 53.3749 36.0484 53.6826 35.72C53.5137 35.1971 53.4217 34.6375 53.4217 34.0577C53.4217 33.0707 53.686 32.1474 54.1475 31.3497L53.012 29.6505C48.8126 31.6446 45.9009 35.9445 45.9009 40.9582C45.9009 46.0574 49.3962 49.5211 54.952 49.5211C58.0208 49.5211 61.4392 48.4319 63.5766 46.5635L60.2351 42.282C58.7199 43.4115 56.8167 44.189 54.952 44.189C52.8548 44.189 51.6891 43.0596 51.6891 40.8811V40.8024H56.1176V40.8041Z" fill="#D3D9DE"/>
<path d="M64.9479 49.0569H71.5523L77.1849 21.8501H70.5806L64.9479 49.0569Z" fill="#D3D9DE"/>
<path d="M94.2117 49.0569H101.554L96.5815 22.4735L96.6584 22.3176H89.0841L72.9638 49.0569H80.5782L83.025 44.9699H93.4357L94.2134 49.0569H94.2117ZM86.0537 39.9494L90.9488 31.8139L92.5025 39.9494H86.0537Z" fill="#009933"/>
<path d="M102.226 49.0569H108.829L114.461 21.8501H107.859L102.226 49.0569Z" fill="#009933"/>
<path d="M122.554 40.8058C128.769 41.0002 132.421 38.4313 132.421 33.9555C132.421 30.7247 129.235 28.4675 124.73 28.4675C117.893 28.4675 112.337 34.0342 112.337 40.9616C112.337 46.0608 115.834 49.5245 121.388 49.5245C124.457 49.5245 127.876 48.4353 130.013 46.5669L126.671 42.2854C125.156 43.4148 123.253 44.1924 121.388 44.1924C119.291 44.1924 118.125 43.0629 118.125 40.8845V40.8074H122.554V40.8058ZM124.496 33.7611C125.738 33.7611 126.633 34.3057 126.633 35.0464C126.633 36.1356 125.39 36.7975 123.332 36.7975H119.291C120.418 35.0078 122.281 33.7611 124.496 33.7611Z" fill="#009933"/>
<path fill-rule="evenodd" clip-rule="evenodd" d="M141.828 29.9087L142.027 28.9334H135.462L134.428 33.8885C134.632 33.5483 135.027 33.3774 135.423 33.5081C135.764 33.6204 136.109 33.7125 136.453 33.8097C136.532 33.7712 136.646 33.6874 136.696 33.6489C137.121 33.3238 137.552 33.0004 137.987 32.687L138.266 32.4842L138.517 32.7205L139.574 31.8659L139.618 31.9145L141.825 29.9104L141.828 29.9087ZM140.855 37.4879C142.317 35.3112 144.851 33.9538 147.816 33.9538L148.478 28.7524L145.289 30.1031C145.066 30.1969 144.621 30.5589 144.376 30.7683L143.745 31.7855L143.531 31.6648L143.108 32.3468L142.902 32.2312L142.486 32.9015L142.29 32.7909L141.882 33.4495L141.594 33.2886L141.195 33.6505L141.22 33.6773L140.467 34.5504L140.643 34.7146L140.136 36.1658L140.852 37.4896L140.855 37.4879Z" fill="#009933"/>
<path fill-rule="evenodd" clip-rule="evenodd" d="M161.58 34.1882L162.667 28.9332H158.511L159.676 23.4067H153.383L152.672 26.7766C154.248 27.1285 155.765 27.9345 156.531 29.2985C157.298 30.6659 157.027 32.1791 155.731 33.0689C154.669 33.7961 153.126 33.8782 152.221 32.8544C151.142 31.6345 151.567 30.128 151.135 28.9332H149.577L148.45 34.1882H151.13C149.383 42.3624 149.189 43.2186 149.189 44.2308C149.189 47.3057 151.365 49.5243 154.666 49.5243C156.452 49.5243 158.395 48.8624 159.755 47.7732L159.056 43.1801C158.629 43.5689 157.696 44.0364 156.803 44.0364C156.104 44.0364 155.716 43.6862 155.716 42.8299C155.716 42.3624 155.833 41.8965 157.425 34.1882H161.581H161.58Z" fill="#009933"/>
<path fill-rule="evenodd" clip-rule="evenodd" d="M58.1446 2.12183C66.4832 2.12183 74.0341 5.50843 79.4996 10.9846C81.6419 13.1312 83.4648 15.5995 84.8881 18.3108L83.4866 19.0498C82.1369 16.481 80.411 14.1417 78.3807 12.1074C73.2029 6.91938 66.0484 3.70872 58.1463 3.70872C50.2441 3.70872 43.0896 6.9177 37.9118 12.1074C35.9334 14.0897 34.2426 16.3637 32.9096 18.8555L31.555 18.0277C32.9565 15.4286 34.7242 13.0575 36.793 10.9846C42.2584 5.50843 49.8076 2.12183 58.1463 2.12183H58.1446Z" fill="url(#paint0_linear_1289_6946)"/>
<path d="M29.8341 16.9772L29.1601 16.5649L29.9829 15.2126L39.3601 20.9436L38.5373 22.2959L29.8341 16.9772Z" fill="#EA251D"/>
<path fill-rule="evenodd" clip-rule="evenodd" d="M57.3535 0.794774V0.000488281H58.9373V10.033H57.3535V0.794774Z" fill="#FFFF00"/>
<path d="M86.2477 15.6249L86.9217 15.2126L87.7445 16.5649L78.3673 22.2959L77.5445 20.9436L86.2477 15.6249Z" fill="#009933"/>
<path fill-rule="evenodd" clip-rule="evenodd" d="M59.5176 15.6701C59.6614 15.7086 59.8187 15.7975 59.8738 15.9918C59.9859 16.389 59.3069 19.0115 60.7351 19.1204C62.1634 19.231 62.2186 17.9038 61.9041 17.0308C61.5897 16.1577 61.4409 14.9881 61.665 14.6881C61.8891 14.3882 61.7503 14.0597 61.6432 13.9324C61.5362 13.8034 60.5729 12.5013 60.2451 12.56C59.9173 12.617 59.9876 12.999 60.2167 13.1347C60.4458 13.2705 60.9826 13.5403 61.0362 14.6043C61.0897 15.6667 61.6466 17.4564 61.6131 17.8787C61.5814 18.3026 61.2619 18.8439 60.7468 18.7299C60.2317 18.616 60.205 17.3793 60.2267 16.5917C60.2468 15.8712 60.1247 15.4053 59.5193 15.2411V15.6701H59.5176ZM56.0775 12.4946H59.2149C59.3822 12.4946 59.5193 12.632 59.5193 12.7996V15.2428V15.6718V19.2779C59.5193 19.2863 59.5193 19.2947 59.5176 19.3047H59.6146C59.7568 19.3047 59.8738 19.422 59.8738 19.5644C59.8738 19.7086 59.7568 19.8242 59.6146 19.8242H55.6778C55.5356 19.8242 55.4185 19.7069 55.4185 19.5644C55.4185 19.422 55.5356 19.3047 55.6778 19.3047H55.7748C55.7748 19.2963 55.7731 19.288 55.7731 19.2779V12.8013C55.7731 12.6337 55.9102 12.4963 56.0775 12.4963V12.4946ZM56.4003 13.061H58.8921C58.9891 13.061 59.0677 13.1398 59.0677 13.237V15.0601C59.0677 15.1573 58.9891 15.2361 58.8921 15.2361H56.4003C56.3033 15.2361 56.2247 15.1573 56.2247 15.0601V13.237C56.2247 13.1398 56.3033 13.061 56.4003 13.061Z" fill="#D3D9DE"/>
<path fill-rule="evenodd" clip-rule="evenodd" d="M43.1983 12.9136L57.591 34.4598L56.9722 30.103L43.1983 12.9136Z" fill="#EA251D"/>
<path d="M34.1255 24.6434H32.3895V25.8231H34.4282V26.5503H31.4847V22.1499H34.4215V22.8855H32.3895V23.9345H34.1255V24.6434Z" fill="#EA251D"/>
<path d="M84.5586 24.7523H82.8209V26.5503H81.9162V22.1499H84.776V22.8855H82.8209V24.0217H84.5586V24.7523Z" fill="#009933"/>
<path fill-rule="evenodd" clip-rule="evenodd" d="M58.8135 29.7961C61.1633 29.7961 63.0681 31.7048 63.0681 34.0591C63.0681 36.4135 61.1633 38.3221 58.8135 38.3221C56.4638 38.3221 54.5589 36.4135 54.5589 34.0591C54.5589 31.7048 56.4638 29.7961 58.8135 29.7961Z" fill="#EA251D"/>
<path d="M143.907 29.0774C144.262 28.7791 145.046 28.4439 145.08 28.4305L149.796 26.4314L149.677 26.1499L144.539 28.3266C143.994 28.5579 143.176 29.2567 143.018 29.3941L143.011 29.3991L138.8 33.2214L139.082 33.4862C140.235 32.4271 143.613 29.322 143.906 29.0757L143.907 29.0774Z" fill="#D3D9DE"/>
<path d="M145.145 28.5848C145.137 28.5882 144.351 28.9233 144.014 29.2048C143.728 29.4461 140.36 32.5395 139.206 33.6019L139.905 34.2571L144.013 30.5303C144.486 30.1198 144.959 29.7896 145.127 29.7176L150.264 27.5408L149.861 26.5857L145.145 28.5848Z" fill="#D3D9DE"/>
<path d="M140.021 34.4295L138.646 33.1542L139.532 32.4387L140.665 33.6838L140.021 34.4295Z" fill="#D3D9DE"/>
<path d="M144.155 30.3342L143.603 31.224L143.197 30.9945L144.155 30.3342Z" fill="#D3D9DE"/>
<path d="M143.519 30.8955L142.967 31.7853L142.561 31.5557L143.519 30.8955Z" fill="#D3D9DE"/>
<path d="M142.897 31.4502L142.345 32.34L141.941 32.1104L142.897 31.4502Z" fill="#D3D9DE"/>
<path d="M142.293 31.998L141.74 32.8878L141.335 32.6583L142.293 31.998Z" fill="#D3D9DE"/>
<path d="M137.965 41.7407C137.965 41.7407 138.751 42.0088 138.908 42.726C138.908 42.726 137.621 42.907 137.345 43.2438C137.069 43.579 137.111 43.8538 137.238 44.328C137.321 44.6363 138.176 47.4113 138.176 47.4113C138.176 47.4113 137.89 47.6543 137.517 47.6308L136.413 43.9677C136.413 43.9677 135.779 42.22 137.965 41.7424V41.7407Z" fill="#D3D9DE"/>
<path d="M140.353 41.9417L139.427 48.73C139.323 49.1288 138.934 49.0484 138.934 49.0484L134.425 48.7719L134.013 48.1988L134.241 46.5181L137.283 47.7246C138.318 47.914 138.649 46.9538 138.649 46.9538L139.077 43.0544C139.151 42.0657 138.097 41.6384 138.097 41.6384L140.353 41.9401V41.9417Z" fill="#D3D9DE"/>
<path d="M140.678 38.039C140.678 38.039 140.939 38.4261 140.805 39.1148L140.384 41.7357L135.93 41.181C135.93 41.181 134.87 41.0838 134.657 42.3037L133.794 48.7921L131.926 48.5055L133.266 41.0838L131.699 48.4703L131.267 48.405L132.739 41.2933C132.739 41.2933 132.891 40.7922 132.5 40.556C132.11 40.3197 131.384 40.1538 131.757 39.4852C132.13 38.8166 134.753 34.1698 134.753 34.1698C134.753 34.1698 134.915 33.7794 135.294 33.9034C135.723 34.0442 136.415 34.2302 136.415 34.2302C136.415 34.2302 136.527 34.3039 136.952 33.9788C137.52 33.5431 138.233 33.022 138.233 33.022L140.159 34.8301L139.683 36.1991L140.676 38.0374L140.678 38.039Z" fill="#D3D9DE"/>
<path d="M152.696 32.4321C151.371 30.9357 152.789 28.6266 150.485 27.2056C150.485 27.2056 154.54 27.0464 155.977 29.6085C157.415 32.1707 154.02 33.9268 152.696 32.4304V32.4321ZM154.069 32.6265C154.069 32.6265 153.017 32.5946 152.647 31.0396C152.325 29.6856 152.589 28.9801 151.62 27.8926C151.62 27.8926 152.161 28.5528 152.269 29.8632C152.4 31.4384 152.764 32.6349 154.069 32.6265Z" fill="#009933"/>
</g>
<defs>
<linearGradient id="paint0_linear_1289_6946" x1="35.3296" y1="19.7553" x2="83.1011" y2="14.2119" gradientUnits="userSpaceOnUse">
<stop stop-color="#EA251D"/>
<stop offset="0.388235" stop-color="#FFFF00"/>
<stop offset="1" stop-color="#6BDA35"/>
</linearGradient>
<clipPath id="clip0_1289_6946">
<rect width="162.667" height="61" fill="white"/>
</clipPath>
</defs>
</svg>
