<svg width="28" height="40" viewBox="0 0 28 40" fill="none" xmlns="http://www.w3.org/2000/svg">
<path d="M5.51198e-05 13.8078C5.51198e-05 15.5708 0.252118 16.6617 0.660336 18.2755C0.941281 19.3862 1.52368 20.8783 1.97103 21.9506C2.31299 22.7702 2.76547 23.6462 3.15997 24.4419C3.82736 25.788 4.62599 27.1542 5.41007 28.4333C5.73075 28.9566 6.04141 29.4331 6.37555 29.9362C6.54168 30.1863 6.69971 30.4042 6.85751 30.6651C7.0237 30.9398 7.18228 31.1502 7.36076 31.4193C7.53042 31.6751 7.68503 31.8992 7.85347 32.1375C8.77464 33.4404 9.59488 34.4917 10.5085 35.7225C10.8633 36.2005 11.2257 36.6269 11.5972 37.1017C12.2583 37.9466 12.9477 38.6991 13.5621 39.4671C13.6758 39.6093 13.8005 39.6557 13.8478 39.8333H13.9407C13.9803 39.6846 14.6084 39.0234 14.7632 38.8399C14.8677 38.7161 14.9659 38.5971 15.056 38.4808L18.3486 34.323L20.8968 30.724C21.0638 30.4452 21.2147 30.2347 21.3944 29.9641C22.3957 28.4566 23.3237 26.8959 24.1791 25.2967C24.2602 25.1452 24.3216 25.0603 24.3965 24.9086L25.0158 23.6645C25.1647 23.3655 25.2998 23.126 25.425 22.8159C25.5369 22.5384 25.6911 22.2529 25.8174 21.9505C27.3069 18.3801 28.396 14.7539 27.4172 10.7288C27.2024 9.84568 26.8971 8.89897 26.5332 8.16466L25.9494 7.02487C25.4294 6.14456 25.1838 5.78224 24.5425 4.98552L22.8231 3.25991C21.8356 2.45456 20.8284 1.78857 19.6571 1.2605C15.5895 -0.573546 10.8221 -0.430036 6.99702 1.84776C5.34481 2.83165 4.89955 3.27474 3.65874 4.51383C3.36303 4.80915 2.72705 5.66091 2.50222 5.96492C2.14631 6.44618 1.83962 7.0361 1.53553 7.55986C1.11882 8.27746 0.583554 9.85564 0.371177 10.7288C0.157918 11.6058 0 12.7248 0 13.8077L5.51198e-05 13.8078Z" fill="#EBBC46"/>
<path fill-rule="evenodd" clip-rule="evenodd" d="M9.055 6.42383H16.7101C17.1569 6.42383 17.5225 6.79074 17.5225 7.23919V7.67432C18.0835 8.24913 19.8006 10.0079 19.8836 10.0865C19.9829 10.1805 19.974 10.3528 19.974 10.6956C19.974 11.0383 19.974 12.7547 19.974 13.5916C19.974 14.4285 20.0612 15.7246 20.7426 16.3954C21.4239 17.0663 22.4569 17.014 22.7825 18.0813C23.108 19.1486 23.0849 20.8147 21.3315 21.0979C19.578 21.381 19.2307 20.1351 19.0311 19.6341C18.8454 19.1682 18.2817 18.563 17.5225 18.6242V19.7448H17.9366C18.2553 19.7448 18.5161 20.0065 18.5161 20.3264V22.1901H7.33862V20.3264C7.33862 20.0065 7.5994 19.7448 7.9181 19.7448H8.24264V7.23919C8.24264 6.79074 8.6082 6.42383 9.055 6.42383ZM17.5224 9.06583V18.1638C17.7306 18.1785 18.2725 18.2357 18.5792 18.4456C18.9645 18.7091 19.3212 19.0843 19.8777 20.0754C20.4342 21.0665 22.4044 20.8842 22.47 19.3393C22.5357 17.7944 21.4865 17.3549 21.0297 17.1845C20.5731 17.014 19.4649 16.0414 19.5213 14.2725C19.5213 14.2725 19.0553 14.3336 19.0007 13.8695C18.9461 13.4054 19.0719 12.6739 18.9105 12.544C18.9105 12.544 18.1923 11.8216 18.0993 11.743C18.0063 11.6643 18.0373 11.2402 18.0373 11.1452C18.0373 11.0502 18.0373 9.58936 18.0373 9.58936L17.5223 9.06588L17.5224 9.06583ZM18.5306 10.1275L18.9822 10.5824C18.9963 10.5965 19.0078 10.6312 19.0078 10.6594V11.9474C19.0078 11.9756 18.9963 11.9872 18.9822 11.973L18.5306 11.5182C18.5165 11.5041 18.5051 11.4694 18.5051 11.4412V10.1532C18.5051 10.1249 18.5165 10.1134 18.5306 10.1275V10.1275ZM12.8825 18.2373C12.8825 18.2373 11.3677 18.2473 11.1531 16.8246C10.9385 15.402 12.6063 14.6051 12.8825 12.8673C13.1587 14.6051 14.8266 15.402 14.612 16.8246C14.3974 18.2473 12.8825 18.2373 12.8825 18.2373ZM9.77343 7.43089H15.9916C16.3104 7.43089 16.5712 7.69268 16.5712 8.01262V10.29C16.5712 10.6099 16.3104 10.8717 15.9916 10.8717H9.77343C9.45467 10.8717 9.19385 10.6099 9.19385 10.29V8.01262C9.19385 7.69268 9.45467 7.43089 9.77343 7.43089Z" fill="white"/>
</svg>
